<?xml version="1.0" encoding="utf-8"?>
<!-- Generator: Adobe Illustrator 23.1.0, SVG Export Plug-In . SVG Version: 6.00 Build 0)  -->
<svg version="1.1" id="Layer_1" xmlns="http://www.w3.org/2000/svg" xmlns:xlink="http://www.w3.org/1999/xlink" x="0px" y="0px"
	 viewBox="0 0 500 500" style="enable-background:new 0 0 500 500;" xml:space="preserve">
<style type="text/css">
	.st0{fill:#EC1F27;}
	.st1{fill:#F1BC19;}
	.st2{fill:#FCE0A2;}
	.st3{fill:#EE3E54;}
	.st4{fill:#FBCD59;}
	.st5{fill:#FFFFFF;}
	.st6{fill:#11A551;}
	.st7{fill:#472B29;}
	.st8{fill:#FEFDEF;}
</style>
<path class="st0" d="M65,135c-5.5,0-10,4.5-10,10s4.5,10,10,10s10-4.5,10-10S70.5,135,65,135z"/>
<path class="st1" d="M385,60c-2.8,0-5,2.2-5,5c0,2.8,2.2,5,5,5s5-2.2,5-5C390,62.2,387.8,60,385,60z"/>
<path class="st2" d="M250,65C147.8,65,65,147.8,65,250s82.8,185,185,185s185-82.8,185-185S352.2,65,250,65z"/>
<path class="st1" d="M415,55c-11,0-20,9-20,20s9,20,20,20s20-9,20-20S426,55,415,55z"/>
<path class="st3" d="M435,110c-5.5,0-10,4.5-10,10s4.5,10,10,10s10-4.5,10-10S440.5,110,435,110z"/>
<path class="st4" d="M405,370c-5.5,0-10,4.5-10,10s4.5,10,10,10s10-4.5,10-10S410.5,370,405,370z M75,295c-11,0-20,9-20,20
	c0,11,9,20,20,20s20-9,20-20C95,304,86,295,75,295z"/>
<path class="st3" d="M125,425c-5.5,0-10,4.5-10,10s4.5,10,10,10c5.5,0,10-4.5,10-10S130.5,425,125,425z"/>
<path class="st5" d="M92.5,255c-6.9,0-12.5,5.6-12.5,12.5S85.6,280,92.5,280s12.5-5.6,12.5-12.5S99.4,255,92.5,255z"/>
<path class="st1" d="M105,330c-2.8,0-5,2.2-5,5s2.2,5,5,5s5-2.2,5-5S107.8,330,105,330z"/>
<path class="st5" d="M400,165c-2.8,0-5,2.2-5,5s2.2,5,5,5s5-2.2,5-5S402.8,165,400,165z"/>
<g>
	<path class="st6" d="M175,361.5c-20.1,0-36.5-16.4-36.5-36.5V175c0-20.1,16.4-36.5,36.5-36.5h150c20.1,0,36.5,16.4,36.5,36.5v150
		c0,20.1-16.4,36.5-36.5,36.5H175z"/>
	<path class="st7" d="M325,142c18.2,0,33,14.8,33,33v150c0,18.2-14.8,33-33,33H175c-18.2,0-33-14.8-33-33V175c0-18.2,14.8-33,33-33
		H325 M325,135H175c-22,0-40,18-40,40v150c0,22,18,40,40,40h150c22,0,40-18,40-40V175C365,153,347,135,325,135L325,135z"/>
</g>
<g>
	<path class="st7" d="M342.5,236.9c-1.4,0-2.5-1.1-2.5-2.5V215c0-1.4,1.1-2.5,2.5-2.5s2.5,1.1,2.5,2.5v19.4
		C345,235.8,343.9,236.9,342.5,236.9z"/>
</g>
<g>
	<path class="st7" d="M342.5,202.5c-1.4,0-2.5-1.1-2.5-2.5v-10c0-1.4,1.1-2.5,2.5-2.5s2.5,1.1,2.5,2.5v10
		C345,201.4,343.9,202.5,342.5,202.5z"/>
</g>
<g>
	<path class="st7" d="M320,345H180c-13.8,0-25-11.2-25-25V180c0-13.8,11.2-25,25-25h126.9c1.4,0,2.5,1.1,2.5,2.5s-1.1,2.5-2.5,2.5
		H180c-11,0-20,9-20,20v140c0,11,9,20,20,20h140c11,0,20-9,20-20v-71.9c0-1.4,1.1-2.5,2.5-2.5s2.5,1.1,2.5,2.5V320
		C345,333.8,333.8,345,320,345z"/>
</g>
<g>
	<path class="st8" d="M237,297.7c-1.8,0-3.6-0.6-5-1.9l-44.6-44.6c-3-2.8-3.3-7.5-0.5-10.5c2.8-3,7.5-3.3,10.5-0.5l39.5,39.9
		l65.6-65.8c3-2.8,7.7-2.7,10.5,0.3c2.8,3,2.7,7.7-0.3,10.5l-70.6,70.6C240.7,297,238.8,297.7,237,297.7z"/>
	<path class="st7" d="M237,299c-2.2,0-4.2-0.8-5.8-2.3l-44.6-44.6c-1.7-1.5-2.7-3.6-2.8-6c-0.1-2.3,0.7-4.5,2.3-6.3
		c3.2-3.5,8.7-3.8,12.3-0.6l38.6,39.1l64.7-65c1.7-1.6,3.9-2.6,6.2-2.4c2.3,0.1,4.5,1,6.1,2.7c1.6,1.7,2.4,3.9,2.4,6.2
		s-1,4.5-2.7,6.1L243,296.6C241.3,298.1,239.2,299,237,299z M192.5,239.5c-1.7,0-3.4,0.7-4.6,2c-1.1,1.2-1.7,2.8-1.6,4.5
		c0.1,1.6,0.8,3.2,2,4.3l44.6,44.6c2.2,2,6.1,2,8.3-0.1l70.6-70.5c2.5-2.4,2.6-6.3,0.3-8.8c-1.1-1.2-2.7-1.9-4.3-1.9
		c-1.6-0.2-3.2,0.5-4.4,1.7l-66.4,66.7l-40.4-40.8C195.4,240,193.9,239.5,192.5,239.5z"/>
</g>
</svg>
